# AST/ASF file generated using VICON BodyLanguage
# -----------------------------------------------
:version 1.10
:name VICON
:units
  mass 1.0
  length 0.45
  angle deg
:documentation
   .ast/.asf automatically generated from VICON data using
   VICON BodyBuilder and BodyLanguage model FoxedUp or BRILLIANT.MOD
:root
   order TX TY TZ RX RY RZ
   axis XYZ
   position 0 0 0  
   orientation 0 0 0 
:bonedata
  begin
     id 1 
     name lhipjoint
     direction 0.541323 -0.757556 0.364798 
     length 2.47576 
     axis 0 0 0  XYZ
  end
  begin
     id 2 
     name lfemur
     direction 0.34202 -0.939693 0  
     length 7.46493  
     axis 0 0 20  XYZ
    dof rx ry rz
    limits (-160.0 20.0)
           (-70.0 70.0)
           (-60.0 70.0)
  end
  begin
     id 3 
     name ltibia
     direction 0.34202 -0.939693 0   
     length 7.73805   
     axis 0 0 20   XYZ
    dof rx
    limits (-10.0 170.0)
  end
  begin
     id 4 
     name lfoot
     direction 0.107174 -0.294458 0.949636   
     length 2.25864   
     axis -90 7.62852e-016 20   XYZ
    dof rx rz
    limits (-45.0 90.0)
           (-70.0 20.0)
  end
  begin
     id 5 
     name ltoes
     direction 1.53606e-011 -4.21934e-011 1   
     length 1.12451   
     axis -90 7.62852e-016 20   XYZ
    dof rx
    limits (-90.0 20.0)
  end
  begin
     id 6 
     name rhipjoint
     direction -0.524745 -0.766967 0.36933   
     length 2.44538  
     axis 0 0 0  XYZ 
  end
  begin
     id 7 
     name rfemur
     direction -0.34202 -0.939693 0   
     length 7.61604   
     axis 0 0 -20   XYZ
    dof rx ry rz
    limits (-160.0 20.0)
           (-70.0 70.0)
           (-70.0 60.0)
  end
  begin
     id 8 
     name rtibia
     direction -0.34202 -0.939693 0   
     length 7.61056   
     axis 0 0 -20   XYZ
    dof rx
    limits (-10.0 170.0)
 end
 begin
     id 9 
     name rfoot
     direction -0.12616 -0.346623 0.929482   
     length 2.46372  
     axis -90 -7.62852e-016 -20   XYZ
    dof rx rz
    limits (-45.0 90.0)
           (-20.0 70.0)
  end
  begin
     id 10 
     name rtoes
     direction -1.53531e-011 -4.22004e-011 1   
     length 1.21611   
     axis -90 -7.62852e-016 -20   XYZ
    dof rx
    limits (-90.0 20.0)
  end
  begin
     id 11 
     name lowerback
     direction -0.000778023 0.997293 -0.0735223   
     length 2.06139   
     axis 0 0 0   XYZ
    dof rx ry rz
    limits (-20.0 45.0)
           (-30.0 30.0)
           (-30.0 30.0)
  end
  begin
     id 12 
     name upperback
     direction 0.0222598 0.999722 -0.0078355   
     length 2.06383   
     axis 0 0 0   XYZ
    dof rx ry rz
    limits (-20.0 45.0)
           (-30.0 30.0)
           (-30.0 30.0)
  end
  begin
     id 13 
     name thorax
     direction 0.0219654 0.999405 0.0265994   
     length 2.07163   
     axis 0 0 0   XYZ
    dof rx ry rz
    limits (-20.0 45.0)
           (-30.0 30.0)
           (-30.0 30.0)
  end
  begin
     id 14 
     name lowerneck
     direction 0.0213282 0.988147 0.15202   
     length 1.75969   
     axis 0 0 0   XYZ
    dof rx ry rz
    limits (-20.0 45.0)
           (-30.0 30.0)
           (-30.0 30.0)
  end
  begin
     id 15 
     name upperneck
     direction -0.0546456 0.982624 -0.177379   
     length 1.79244   
     axis 0 0 0   XYZ
    dof rx ry rz
    limits (-20.0 45.0)
           (-30.0 30.0)
           (-30.0 30.0)
  end
  begin
     id 16
     name head
     direction -0.0199987 0.996855 -0.076686  
     length 1.80555  
     axis 0 0 0   XYZ
    dof rx ry rz
    limits (-20.0 45.0)
           (-30.0 30.0)
           (-30.0 30.0)
  end
  begin
     id 17 
     name lclavicle
     direction 0.929565 0.363219 -0.063096  
     length 3.55722  
     axis 0 0 0   XYZ
    dof ry rz
    limits (-20.0 10.0)
           (0.0 20.0)
  end
  begin
     id 18 
     name lhumerus
     direction 1 -4.48993e-011 -2.36203e-027   
     length 4.92785   
     axis 180 -30 -90   XYZ
    dof rx ry rz
    limits (-60.0 90.0)
           (-90.0 90.0)
           (-90.0 90.0)
  end
  begin
     id 19
     name lradius
     direction 1 -4.48947e-011 2.02997e-027   
     length 3.44052   
     axis 180 -30 -90   XYZ
    dof rx
    limits (-10.0 170.0)
  end
  begin
     id 20
     name lwrist
     direction 1 -4.48962e-011 1.45991e-027   
     length 1.72026   
     axis 1.49639e-024 90 90   XYZ
    dof ry
    limits (-180.0 0.0)
 end
  begin
     id 21 
     name lhand
     direction 1 -4.48984e-011 2.91906e-027   
     length 0.654326   
     axis -1.863e-015 90 90   XYZ
    dof rx rz
    limits (-90.0 90.0)
           (-45.0 45.0)
  end
  begin
     id 22 
     name lfingers
     direction 1 -4.48961e-011 5.83968e-027   
     length 0.527534   
     axis -3.72598e-015 90 90   XYZ
    dof rx
    limits (0.0 90.0)
  end
  begin
     id 23
     name lthumb
     direction 0.707107 -6.34963e-011 0.707107   
     length 0.757437   
     axis -90 45 -6.68868e-015   XYZ
    dof rx rz
    limits (-45.0 45.0)
           (-45.0 45.0)
  end
  begin
     id 24 
     name rclavicle
     direction -0.902944 0.422599 -0.0781198   
     length 3.54432  
     axis 0 0 0   XYZ 
    dof ry rz
    limits (-10.0 20.0)
           (-20.0 0.0)
  end
  begin
     id 25 
     name rhumerus
     direction -1 -4.48953e-011 -4.75835e-028  
     length 5.09181   
     axis 180 30 90   XYZ
    dof rx ry rz
    limits (-90.0 60.0)
           (-90.0 90.0)
           (-90.0 90.0)
  end
  begin
     id 26 
     name rradius
     direction -1 -4.48986e-011 -3.25889e-027   
     length 3.49865   
     axis 180 30 90   XYZ
    dof rx
    limits (-10.0 170.0)
  end
  begin
     id 27 
     name rwrist
     direction -1 -4.48963e-011 1.45989e-027   
     length 1.74933   
     axis 1.49639e-024 -90 -90   XYZ
    dof ry
    limits (-180.0 0.0)
  end
  begin
     id 28
     name rhand
     direction -1 -4.49003e-011 2.91844e-027   
     length 0.66641   
     axis -1.863e-015 -90 -90   XYZ
    dof rx rz
    limits (-90.0 90.0)
           (-45.0 45.0)
  end
  begin
     id 29
     name rfingers
     direction -1 -4.48973e-011 5.83886e-027   
     length 0.537277   
     axis -3.72598e-015 -90 -90   XYZ
    dof rx
    limits (0.0 90.0)
  end
  begin
     id 30
     name rthumb
     direction -0.707107 -6.34976e-011 0.707107   
     length 0.771425   
     axis -90 -45 6.68868e-015   XYZ
    dof rx rz
    limits (-45.0 45.0)
           (-45.0 45.0)
  end
:hierarchy
  begin
    root lhipjoint rhipjoint lowerback
    lhipjoint lfemur
    lfemur ltibia
    ltibia lfoot
    lfoot ltoes
    rhipjoint rfemur
    rfemur rtibia
    rtibia rfoot
    rfoot rtoes
    lowerback upperback
    upperback thorax
    thorax lowerneck lclavicle rclavicle
    lowerneck upperneck
    upperneck head
    lclavicle lhumerus
    lhumerus lradius
    lradius lwrist
    lwrist lhand lthumb
    lhand lfingers
    rclavicle rhumerus
    rhumerus rradius
    rradius rwrist
    rwrist rhand rthumb
    rhand rfingers
  end

#!OML:ASF H:\LiuWeirdWalks\Patient Classification 1\Patient 1\Session 1\male.ASF
:FULLY-SPECIFIED
:DEGREES
21
root -0.770057 17.8279 -31.4292 4.50252 0.867896 -0.611357
lowerback 4.36533 -1.04134 -1.02084
upperback -0.944768 -1.36451 2.50648
thorax -3.3377 -0.634252 3.25871
lowerneck -18.1887 1.77874 5.96811
upperneck 10.4027 1.94325 -6.96068
head 6.25086 0.601293 -3.00837
rclavicle 6.16232e-015 -8.74653e-015
rhumerus -34.3449 -15.4772 -71.3778
rradius 26.3233
rwrist -5.65049
rhand -16.0928 -1.45056
rfingers 7.12502
rthumb 10.1106 -31.1877
lclavicle 6.16232e-015 -8.74653e-015
lhumerus -34.9878 -0.15699 87.8285
lradius 29.5066
lwrist 4.72742
lhand -8.69994 -0.394711
lfingers 7.12502
lthumb 17.2353 28.861
rfemur -12.5049 0.348975 20.7697
rtibia 34.4293
rfoot -18.2328 -18.8215
rtoes -3.44606
lfemur -12.0037 -1.73342 -18.8089
ltibia 31.1036
lfoot -13.6439 17.2374
ltoes -9.61151
22
root -0.773614 17.8286 -31.4255 4.51584 0.856169 -0.651814
lowerback 4.31214 -1.0411 -0.972267
upperback -0.914022 -1.36186 2.51277
thorax -3.27703 -0.634902 3.23566
lowerneck -18.1933 1.78622 5.95612
upperneck 10.3105 1.9505 -6.95192
head 6.22244 0.605293 -3.00192
rclavicle -2.85753e-014 -1.27222e-014
rhumerus -34.3285 -15.472 -71.4772
rradius 26.3283
rwrist -5.62198
rhand -16.0279 -1.37153
rfingers 7.12502
rthumb 10.1732 -31.1056
lclavicle -2.85753e-014 -1.27222e-014
lhumerus -34.9798 -0.0911021 87.8561
lradius 29.2873
lwrist 4.61296
lhand -8.59358 -0.381734
lfingers 7.12502
lthumb 17.3376 28.865
rfemur -12.5005 0.369547 20.8242
rtibia 34.4127
rfoot -18.2387 -18.798
rtoes -3.4276
lfemur -12.0119 -1.77384 -18.7624
ltibia 31.1213
lfoot -13.6367 17.3306
ltoes -9.5988
23
root -0.777224 17.8292 -31.4224 4.53527 0.854326 -0.69123
lowerback 4.24729 -1.04126 -0.928142
upperback -0.884033 -1.36005 2.52112
thorax -3.2104 -0.635902 3.21703
lowerneck -18.1675 1.7884 5.9403
upperneck 10.1894 1.952 -6.94473
head 6.1794 0.606878 -2.99564
rclavicle -1.5207e-014 -8.74653e-015
rhumerus -34.3123 -15.4533 -71.5853
rradius 26.3425
rwrist -5.61115
rhand -16.0105 -1.35188
rfingers 7.12502
rthumb 10.19 -31.0851
lclavicle -1.5207e-014 -8.74653e-015
lhumerus -34.9611 -0.0336462 87.8833
lradius 29.0778
lwrist 4.52559
lhand -8.5007 -0.354716
lfingers 7.12502
lthumb 17.427 28.8841
rfemur -12.5032 0.387643 20.8789
rtibia 34.3935
rfoot -18.2364 -18.7825
rtoes -3.41498
lfemur -12.0325 -1.79854 -18.715
ltibia 31.1424
lfoot -13.6233 17.3949
ltoes -9.56386
24
root -0.780674 17.83 -31.4194 4.5571 0.857526 -0.732363
lowerback 4.17137 -1.03924 -0.882209
upperback -0.856027 -1.3553 2.53037
thorax -3.1398 -0.635452 3.19789
lowerneck -18.1315 1.78806 5.92669
upperneck 10.0775 1.95118 -6.94224
head 6.13755 0.607196 -2.99159
rclavicle 4.32357e-015 4.77083e-015
rhumerus -34.3052 -15.423 -71.6968
rradius 26.3643
rwrist -5.61636
rhand -16.021 -1.35229
rfingers 7.12502
rthumb 10.1799 -31.086
lclavicle 4.32357e-015 4.77083e-015
lhumerus -34.9475 0.00965913 87.9098
lradius 28.8906
lwrist 4.42548
lhand -8.42448 -0.322024
lfingers 7.12502
lthumb 17.5004 28.9103
rfemur -12.5073 0.403921 20.9353
rtibia 34.3721
rfoot -18.2307 -18.7692
rtoes -3.3991
lfemur -12.0584 -1.81224 -18.6648
ltibia 31.1648
lfoot -13.6074 17.4443
ltoes -9.53535
25
root -0.784049 17.8307 -31.4166 4.57826 0.867394 -0.771925
lowerback 4.10248 -1.04038 -0.838367
upperback -0.842053 -1.35466 2.54249
thorax -3.08731 -0.636605 3.18365
lowerneck -18.0704 1.78573 5.90631
upperneck 9.98274 1.95188 -6.94292
head 6.09722 0.60811 -2.98743
rclavicle 1.72943e-014 -7.95139e-015
rhumerus -34.3248 -15.3583 -71.8075
rradius 26.3939
rwrist -5.63368
rhand -16.0282 -1.34138
rfingers 7.12502
rthumb 10.173 -31.0754
lclavicle 1.72943e-014 -7.95139e-015
lhumerus -34.9621 0.0609696 87.9305
lradius 28.729
lwrist 4.30833
lhand -8.35339 -0.256959
lfingers 7.12502
lthumb 17.5688 28.9692
rfemur -12.51 0.412173 20.9909
rtibia 34.3483
rfoot -18.2213 -18.7607
rtoes -3.39663
lfemur -12.0857 -1.81686 -18.6149
ltibia 31.1878
lfoot -13.5905 17.4789
ltoes -9.5225
26
root -0.787488 17.8315 -31.4139 4.59539 0.894083 -0.803508
lowerback 4.04198 -1.05238 -0.81428
upperback -0.802795 -1.36963 2.56739
thorax -3.01176 -0.645555 3.19453
lowerneck -18.1414 1.82048 5.92682
upperneck 9.95842 1.99906 -7.01246
head 6.10544 0.624867 -3.00836
rclavicle 6.95746e-016 -2.14687e-014
rhumerus -34.2704 -15.2732 -71.932
rradius 26.4138
rwrist -5.64528
rhand -16.0325 -1.32505
rfingers 7.12502
rthumb 10.1688 -31.0593
lclavicle 6.95746e-016 -2.14687e-014
lhumerus -34.9198 0.153589 87.9511
lradius 28.574
lwrist 4.14249
lhand -8.29973 -0.208587
lfingers 7.12502
lthumb 17.6204 29.013
rfemur -12.5051 0.406977 21.0404
rtibia 34.323
rfoot -18.2182 -18.7577
rtoes -3.38993
lfemur -12.1101 -1.8179 -18.5703
ltibia 31.2093
lfoot -13.5726 17.4912
ltoes -9.52953
27
root -0.791223 17.8325 -31.4121 4.61494 0.948379 -0.827276
lowerback 4.00056 -1.07056 -0.799045
upperback -0.786592 -1.39296 2.5895
thorax -2.97014 -0.657923 3.20894
lowerneck -18.186 1.84265 5.93169
upperneck 9.96471 2.03314 -7.06283
head 6.11785 0.636565 -3.0221
rclavicle -1.62506e-014 3.26007e-014
rhumerus -34.2544 -15.1814 -72.052
rradius 26.4398
rwrist -5.65493
rhand -16.017 -1.29416
rfingers 7.12502
rthumb 10.1838 -31.0277
lclavicle -1.62506e-014 3.26007e-014
lhumerus -34.915 0.235739 87.9654
lradius 28.4377
lwrist 3.95749
lhand -8.27013 -0.18378
lfingers 7.12502
lthumb 17.6489 29.0352
rfemur -12.5026 0.385313 21.0861
rtibia 34.2979
rfoot -18.2195 -18.7691
rtoes -3.37815
lfemur -12.1428 -1.82615 -18.529
ltibia 31.2281
lfoot -13.5525 17.4808
ltoes -9.55378
28
root -0.79546 17.8334 -31.4108 4.63549 1.01778 -0.844642
lowerback 3.9752 -1.09308 -0.797603
upperback -0.782667 -1.42251 2.61215
thorax -2.9495 -0.672791 3.2327
lowerneck -18.2299 1.86106 5.92247
upperneck 9.99778 2.06477 -7.09801
head 6.13819 0.647642 -3.02908
rclavicle -1.16786e-014 0
rhumerus -34.2458 -15.0852 -72.1768
rradius 26.4669
rwrist -5.67541
rhand -16.0017 -1.29367
rfingers 7.12502
rthumb 10.1985 -31.0265
lclavicle -1.16786e-014 0
lhumerus -34.9239 0.318038 87.9732
lradius 28.3155
lwrist 3.7825
lhand -8.2333 -0.156515
lfingers 7.12502
lthumb 17.6843 29.0593
rfemur -12.5025 0.359667 21.1299
rtibia 34.2759
rfoot -18.2245 -18.7968
rtoes -3.36684
lfemur -12.1772 -1.83958 -18.4901
ltibia 31.242
lfoot -13.5341 17.4574
ltoes -9.57846
29
root -0.800075 17.8342 -31.4102 4.64809 1.10369 -0.853261
lowerback 3.96524 -1.10783 -0.799435
upperback -0.8121 -1.44177 2.61524
thorax -2.97297 -0.681796 3.23844
lowerneck -18.155 1.84887 5.91934
upperneck 10.0127 2.05423 -7.10217
head 6.13001 0.643374 -3.03103
rclavicle 1.0635e-014 -1.59028e-015
rhumerus -34.3258 -15.0232 -72.2935
rradius 26.508
rwrist -5.70638
rhand -15.984 -1.32244
rfingers 7.12502
rthumb 10.2156 -31.0544
lclavicle 1.0635e-014 -1.59028e-015
lhumerus -35.0014 0.341415 87.9681
lradius 28.2127
lwrist 3.62517
lhand -8.19788 -0.154775
lfingers 7.12502
lthumb 17.7184 29.058
rfemur -12.4964 0.32882 21.1671
rtibia 34.2588
rfoot -18.2374 -18.8362
rtoes -3.34492
lfemur -12.2041 -1.87683 -18.4587
ltibia 31.2508
lfoot -13.5178 17.4344
ltoes -9.58897
30
root -0.804737 17.835 -31.4097 4.67116 1.17568 -0.851612
lowerback 3.94694 -1.11651 -0.811248
upperback -0.860375 -1.45334 2.6122
thorax -3.01158 -0.686494 3.24313
lowerneck -18.0271 1.81916 5.88397
upperneck 10.0168 2.02426 -7.06616
head 6.10748 0.632727 -3.01647
rclavicle 2.23633e-015 -6.36111e-015
rhumerus -34.4347 -14.9642 -72.4063
rradius 26.5495
rwrist -5.74097
rhand -15.9464 -1.33996
rfingers 7.12502
rthumb 10.2519 -31.0701
lclavicle 2.23633e-015 -6.36111e-015
lhumerus -35.109 0.361413 87.9528
lradius 28.1291
lwrist 3.48665
lhand -8.15547 -0.185878
lfingers 7.12502
lthumb 17.7592 29.0232
rfemur -12.5067 0.303126 21.1914
rtibia 34.2486
rfoot -18.2478 -18.8712
rtoes -3.32678
lfemur -12.2366 -1.91366 -18.4397
ltibia 31.2531
lfoot -13.5064 17.4191
ltoes -9.58314
31
root -0.809036 17.8356 -31.4092 4.69924 1.22887 -0.839425
lowerback 3.91969 -1.11464 -0.829016
upperback -0.918812 -1.45128 2.60016
thorax -3.05657 -0.684184 3.24096
lowerneck -17.8566 1.77138 5.8294
upperneck 10.0065 1.97196 -7.0026
head 6.07134 0.613551 -2.99194
rclavicle 1.21756e-014 -1.11319e-014
rhumerus -34.5695 -14.906 -72.5178
rradius 26.5979
rwrist -5.78556
rhand -15.9012 -1.36215
rfingers 7.12502
rthumb 10.2955 -31.0902
lclavicle 1.21756e-014 -1.11319e-014
lhumerus -35.2341 0.361393 87.9335
lradius 28.0696
lwrist 3.42527
lhand -8.12377 -0.254604
lfingers 7.12502
lthumb 17.7897 28.9517
rfemur -12.5279 0.279112 21.1991
rtibia 34.2452
rfoot -18.2574 -18.8942
rtoes -3.31734
lfemur -12.2682 -1.94955 -18.4362
ltibia 31.2495
lfoot -13.498 17.415
ltoes -9.56359
32
root -0.812593 17.8362 -31.4082 4.73286 1.24402 -0.820849
lowerback 3.87472 -1.30625 -0.976668
upperback -0.983392 -1.70786 2.80932
thorax -3.0719 -0.806899 3.55728
lowerneck -17.6476 2.02127 5.65077
upperneck 9.94741 2.38786 -7.19582
head 6.04773 0.796177 -2.98123
rclavicle 9.29318e-015 -9.54166e-015
rhumerus -34.4199 -14.0316 -72.6786
rradius 26.5864
rwrist -5.90671
rhand -15.849 -1.37364
rfingers 7.12502
rthumb 10.3458 -31.0991
lclavicle 9.29318e-015 -9.54166e-015
lhumerus -35.4524 1.23618 87.9117
lradius 28.0608
lwrist 3.29688
lhand -8.11161 -0.33363
lfingers 7.12502
lthumb 17.8015 28.8716
rfemur -12.5608 0.263599 21.1912
rtibia 34.2477
rfoot -18.2587 -18.893
rtoes -3.31983
lfemur -12.2955 -1.97617 -18.4468
ltibia 31.2405
lfoot -13.4933 17.4344
ltoes -9.54304
33
root -0.815427 17.8366 -31.4067 4.77183 1.22754 -0.803343
lowerback 3.81779 -1.44101 -1.08196
upperback -1.03974 -1.88813 2.96224
thorax -3.0776 -0.89297 3.78607
lowerneck -17.4749 2.20002 5.48547
upperneck 9.90204 2.69169 -7.31453
head 6.02576 0.930739 -2.96058
rclavicle -1.80397e-014 9.54166e-015
rhumerus -34.3218 -13.34 -72.8357
rradius 26.5859
rwrist -6.00055
rhand -15.7965 -1.3692
rfingers 7.12502
rthumb 10.3965 -31.0922
lclavicle -1.80397e-014 9.54166e-015
lhumerus -35.6338 1.89786 87.8834
lradius 28.0697
lwrist 3.23938
lhand -8.12057 -0.391425
lfingers 7.12502
lthumb 17.7928 28.8146
rfemur -12.6033 0.259698 21.1779
rtibia 34.2531
rfoot -18.2586 -18.8746
rtoes -3.32766
lfemur -12.3231 -1.99429 -18.4618
ltibia 31.2302
lfoot -13.4923 17.4713
ltoes -9.52001
34
root -0.817658 17.8369 -31.4048 4.80704 1.19618 -0.788569
lowerback 3.76465 -1.77135 -1.28908
upperback -1.06845 -2.3295 3.32609
thorax -3.02274 -1.10711 4.30672
lowerneck -17.4128 2.7541 5.37647
upperneck 9.82335 3.54108 -7.84344
head 6.05838 1.29712 -3.02418
rclavicle 9.64106e-015 -7.15625e-015
rhumerus -33.8809 -11.8801 -73.0548
rradius 26.5207
rwrist -6.16531
rhand -15.7504 -1.36499
rfingers 7.12502
rthumb 10.441 -31.0857
lclavicle 9.64106e-015 -7.15625e-015
lhumerus -35.8297 3.38635 87.8464
lradius 28.1082
lwrist 3.06326
lhand -8.19227 -0.471621
lfingers 7.12502
lthumb 17.7238 28.7406
rfemur -12.6418 0.257732 21.1636
rtibia 34.2581
rfoot -18.2574 -18.844
rtoes -3.33593
lfemur -12.3444 -2.00352 -18.4768
ltibia 31.2214
lfoot -13.4933 17.5141
ltoes -9.50713
